#VRML V2.0 utf8

Shape {
	geometry IndexedFaceSet {
		coordIndex [
			0, 1, 13, 12, -1, 
			1, 0, 10, 11, -1, 
			0, 7, 10, -1, 
			0, 12, 7, -1, 
			1, 2, 13, -1, 
			1, 11, 2, -1, 
			2, 3, 4, 13, -1, 
			3, 2, 11, 9, -1, 
			9, 8, 6, 5, 4, 3, -1,
			4, 5, 12, 13, -1, 
			5, 6, 7, 12, -1, 
			7, 6, 8, 10, -1, 
			8, 9, 11, 10, -1, 
			15, 14, 17, 16, -1
		]

		coord Coordinate { point [
				-18 0 40,
				18 0 40,
				30 0 -24,
				30 0 -40,
				18 -7 -40,
				-18 -7 -40,
				-30 0 -40,
				-30 0 -24,
				-18 7 -40,
				18 7 -40,
				-18 7 13,
				18 7 13,
				-18 -7 13,
				18 -7 13,
				-11 3 29,
				11 3 29,
				11 4 24,
				-11 4 24
			]
		}

		solid FALSE
	}

	appearance Appearance {
		material Material {
			shininess 0.2
			specularColor 1 1 1
			diffuseColor 0.8 0.8 0.9
		}
	}
}