#VRML V2.0 utf8

Shape {
	geometry IndexedFaceSet {
		coordIndex [
			4, 3, 2, 1, 0, -1, 
			0, 1, 6, 5, -1, 
			4, 0, 5, 9, -1, 
			1, 2, 7, 6, -1, 
			2, 3, 8, 7, -1, 
			3, 4, 9, 8, -1, 
			5, 6, 7, 8, 9, -1
		]

		coord Coordinate { point [
				24 16 0,
				24 5 15,
				24 -13 9,
				24 -13 -9,
				24 5 -15,
				-24 16 0,
				-24 5 15,
				-24 -13 9,
				-24 -13 -9,
				-24 5 -15
			]
		}

		solid FALSE
	}

	appearance Appearance {
		material Material {
			shininess 0.2
			specularColor 1 1 1
			diffuseColor 0.8 0.8 0.9
		}
	}
}