#VRML V2.0 utf8

Shape {
	geometry IndexedFaceSet {
		coordIndex [
			0, 6, 2, -1,
			0, 2, 4, 8, -1,
			0, 1, 7, 6, -1,
			0, 8, 1, -1,
			1, 3, 7, -1,
			2, 6, 4, -1,
			3, 1, 8, 5, -1,
			5, 4, 6, 7, -1,
			4, 5, 8, -1,
			3, 5, 7, -1
		]

		coord Coordinate { point [
				-18 -1 50,
				18 -1 50,
				-66 0 7,
				66 0 7,
				-32 12 -38,
				32 12 -38,
				-54 -12 -38,
				54 -12 -38,
				0 12 -6,
				0 -1 50,
				0 -1 60
			]
		}

		solid FALSE
	}

	appearance Appearance {
		material Material {
			shininess 0.2
			specularColor 1 1 1
			diffuseColor 0.8 0.8 0.9
		}
	}
}

Shape {
	geometry IndexedLineSet {
		coordIndex [
			0, 1, -1
		]

		coord Coordinate { point [
				0 -1 50,
				0 -1 60
			]
		}
	}

	appearance Appearance {
				material Material {
					emissiveColor 0.8 0.8 0.9
				}
	}

}