#VRML V2.0 utf8

Shape {
	geometry IndexedFaceSet {
		coordIndex [
			1, 0, 3, 2, -1, 
			0, 1, 5, -1, 
			0, 4, 3, -1, 
			4, 0, 5, 8, -1, 
			1, 2, 6, -1, 
			1, 6, 9, 5, -1, 
			2, 3, 7, -1, 
			6, 2, 7, 10, -1, 
			3, 4, 11, 7, -1, 
			4, 8, 11, -1, 
			5, 9, 8, -1, 
			6, 10, 9, -1, 
			7, 11, 10, -1, 
			8, 9, 10, 11, -1
		]

		coord Coordinate { point [
				160 0 160,
				0 160 160,
				-160 0 160,
				0 -160 160,
				160 -160 0,
				160 160 0,
				-160 160 0,
				-160 -160 0,
				160 0 -160,
				0 160 -160,
				-160 0 -160,
				0 -160 -160,
				10 -30 160,
				10 30 160,
				-10 30 160,
				-10 -30 160
			]
		}

		solid FALSE
	}

	appearance Appearance {
		material Material {
			shininess 0.2
			specularColor 1 1 1
			diffuseColor 0.8 0.8 0.9
		}
	}
}