#VRML V2.0 utf8

Shape {
	geometry IndexedFaceSet {
		coordIndex [
			5, 10, 6, 1, 0, -1, 
			0, 1, 2, 3, 4, -1, 
			4, 9, 14, 5, 0, -1, 
			6, 11, 7, 2, 1, -1, 
			7, 12, 8, 3, 2, -1, 
			8, 13, 9, 4, 3, -1, 
			14, 19, 15, 10, 5, -1,
			10, 15, 16, 11, 6, -1, 
			11, 16, 17, 12, 7, -1, 
			12, 17, 18, 13, 8, -1, 
			13, 18, 19, 14, 9, -1, 
			19, 18, 17, 16, 15, -1
		]

		coord Coordinate { point [
				0 150 196,
				143 46 196,
				88 -121 196,
				-88 -121 196,
				-143 46 196,
				0 243 46,
				231 75 46,
				143 -196 46,
				-143 -196 46,
				-231 75 46,
				143 196 -46,
				231 -75 -46,
				0 -243 -46,
				-231 -75 -46,
				-143 196 -46,
				88 121 -196,
				143 -46 -196,
				0 -150 -196,
				-143 -46 -196,
				-88 121 -196,
				-16 32 196,
				-16 -32 196,
				16 32 196,
				16 -32 196
			]
		}

		solid FALSE
	}

	appearance Appearance {
		material Material {
			shininess 0.2
			specularColor 1 1 1
			diffuseColor 0.8 0.8 0.9
		}
	}
}