#VRML V2.0 utf8

Shape {
	geometry IndexedFaceSet {
		coordIndex [
			1, 0, 5, 4, -1, 
			2, 8, 7, 1, -1, 
			8, 2, 1, 7, -1, 
			0, 3, 6, 5, -1,
			9, 10, 6, 5, -1, 
			10, 9, 5, 6, -1, 
			3, 0, 1, 2, -1, 
			1, 4, 2, -1, 
			3, 2, 4, 6, -1,
			4, 5, 6, -1
		]

		coord Coordinate { point [
				0 10 67,
				-20 0 40,
				-40 0 -40,
				0 30 -40,
				0 -30 -40,
				20 0 40,
				40 0 -40,
				-36 0 56,
				-60 0 -20,
				36 0 56,
				60 0 -20
			]
		}

		solid FALSE
	}

	appearance Appearance {
		material Material {
			shininess 0.2
			specularColor 1 1 1
			diffuseColor 0.8 0.8 0.9
		}
	}
}