#VRML V2.0 utf8

Shape {
	geometry IndexedFaceSet {
		coordIndex [
			0, 5, 1, -1, 
			0, 1, 2, 3, 4, -1, 
			8, 7, 6, 5, 0, -1, 
			2, 1, 5, 6, -1,
			3, 2, 6, 7, -1,
			4, 3, 7, 8, -1,
			0, 4, 8, -1
		]

		coord Coordinate { point [
				0 -10 90,
				76 -10 35,
				47 -10 -55,
				-47 -10 -55,
				-76 -10 35,
				30 14 8,
				9 22 -19,
				-9 22 -19,
				-30 14 8,
				0 6 36,
				8 16 3,
				-8 16 3,
				0 12 14
			]
		}

		solid FALSE
	}

	appearance Appearance {
		material Material {
			shininess 0.2
			specularColor 1 1 1
			diffuseColor 0.8 0.8 0.9
		}
	}
}