#VRML V2.0 utf8

Shape {
	geometry IndexedFaceSet {
		coordIndex [
			0, 3, 1, -1, 
			0, 1, 2, -1, 
			0, 2, 3, -1,
			2, 1, 4, 5, -1,
			1, 3, 6, 4, -1,
			3, 2, 5, 6, -1,
			4, 6, 5, -1,
			4, 7, 10, -1, 
			4, 10, 7, -1,
			5, 8, 11, -1, 
			5, 11, 8, -1,
			6, 9, 12, -1, 
			6, 12, 9, -1
		]

		coord Coordinate { point [
				0 -2 27,
				-4 -2 15,
				0 5 15,
				4 -2 15,
				-4 -2 -15,
				0 5 -15,
				4 -2 -15,
				-9 -5 -15,
				0 11 -15,
				9 -5 -15,
				-4 -2 -3,
				0 5 -3,
				4 -2 -3
			]
		}

		solid FALSE
	}

	appearance Appearance {
		material Material {
			shininess 0.2
			specularColor 1 1 1
			diffuseColor 0.8 0.8 0.9
		}
	}
}