#VRML V2.0 utf8

Shape {
	geometry IndexedFaceSet {
		coordIndex [
			1, 0, 4, 8, -1, 
			0, 1, 7, 3, -1, 
			0, 2, 6, 4, -1, 
			2, 0, 3, 5, -1, 
			1, 8, 7, -1, 
			2, 5, 6, -1, 
			4, 6, 5, 3, 7, 8, -1,
			9, 13, 14, 10, 11, 12, -1
		]

		coord Coordinate { point [
				0 0 72,
				0 16 24,
				0 -16 24,
				48 0 -24,
				-48 0 -24,
				24 -16 -24,
				-24 -16 -24,
				24 16 -24,
				-24 16 -24,
				-32 0 -24,
				32 0 -24,
				8 8 -24,
				-8 8 -24,
				-8 -8 -24,
				8 -8 -24
			]
		}

		solid FALSE
	}

	appearance Appearance {
		material Material {
			shininess 0.2
			specularColor 1 1 1
			diffuseColor 0.8 0.8 0.9
		}
	}
}